#!OML:ASF E:\Mandelcareful walks\Project 1\Capture day 1\Session 1\Subject1.ASF
:FULLY-SPECIFIED
:DEGREES
306
root -13.0439 13.2115 2.38465 -164.097 33.3099 176.513
lowerback 21.2726 5.24394 -3.09744
upperback 3.6924 6.84629 -10.8693
thorax -6.67933 3.93039 -12.3118
lowerneck -2.26528 21.4832 23.8736
upperneck 15.9176 34.681 -19.577
head 13.3352 16.1458 -4.33529
rclavicle 1.01778e-013 -5.56597e-014
rhumerus 53.8551 -25.7159 -25.2255
rradius 126.508
rwrist -71.1824
rhand -7.04231 -17.7051
rfingers 7.12502
rthumb 18.8301 -46.8136
lclavicle 1.01778e-013 -5.56597e-014
lhumerus 5.75434 -60.8082 51.8345
lradius 89.3654
lwrist 10.6117
lhand -23.5761 -17.996
lfingers 7.12502
lthumb 2.88672 11.9642
rfemur -37.1946 -58.2235 14.2772
rtibia 91.6872
rfoot -31.1035 -9.63157
rtoes -36.8582
lfemur -78.9111 -2.0088 -8.86646
ltibia 74.2928
lfoot -9.67662 -14.9428
ltoes -6.31182
307
root -13.0506 13.1908 2.38073 -164.134 33.4417 176.384
lowerback 21.343 5.25221 -3.18379
upperback 3.64041 6.82046 -10.887
thorax -6.78597 3.91223 -12.2958
lowerneck -2.18225 21.5443 23.3602
upperneck 15.8235 34.7091 -19.3367
head 13.13 16.1624 -4.22528
rclavicle 2.22639e-014 1.24042e-013
rhumerus 53.7796 -25.5579 -25.093
rradius 126.496
rwrist -70.502
rhand -7.33337 -17.5515
rfingers 7.12502
rthumb 18.5502 -46.687
lclavicle 2.22639e-014 1.24042e-013
lhumerus 5.56182 -60.9204 51.937
lradius 89.3443
lwrist 10.5233
lhand -23.756 -18.0746
lfingers 7.12502
lthumb 2.71305 11.8879
rfemur -37.2242 -58.2975 14.0024
rtibia 91.7385
rfoot -31.2426 -9.40706
rtoes -36.9214
lfemur -79.0814 -2.02212 -9.00651
ltibia 74.4386
lfoot -9.93135 -14.5604
ltoes -7.76057
308
root -13.0536 13.1816 2.37875 -164.104 33.5679 176.445
lowerback 21.3868 5.28005 -3.17984
upperback 3.63661 6.84491 -10.8333
thorax -6.8161 3.91793 -12.2474
lowerneck -2.06424 21.5397 23.0876
upperneck 15.5326 34.6451 -19.4496
head 12.9564 16.1375 -4.27755
rclavicle 4.92986e-014 8.82604e-014
rhumerus 53.7538 -25.4254 -24.8755
rradius 126.439
rwrist -69.3311
rhand -7.98647 -17.1647
rfingers 7.12502
rthumb 17.9219 -46.3589
lclavicle 4.92986e-014 8.82604e-014
lhumerus 5.46165 -60.9776 52.0297
lradius 89.2513
lwrist 10.3679
lhand -23.9482 -18.0898
lfingers 7.12502
lthumb 2.52743 11.875
rfemur -37.1602 -58.3281 13.9784
rtibia 91.7353
rfoot -31.3257 -9.38062
rtoes -37.1397
lfemur -79.1349 -1.95376 -8.97709
ltibia 74.5732
lfoot -10.1186 -14.3996
ltoes -8.68578
309
root -13.055 13.1894 2.37873 -164.077 33.6914 176.571
lowerback 21.4252 5.28381 -3.12431
upperback 3.65368 6.85371 -10.7794
thorax -6.81728 3.91739 -12.2212
lowerneck -1.84221 21.5437 23.0184
upperneck 15.1805 34.614 -19.6609
head 12.811 16.1381 -4.37779
rclavicle -6.44062e-014 1.06549e-013
rhumerus 53.8752 -25.3411 -24.7875
rradius 126.38
rwrist -68.343
rhand -8.66453 -16.9498
rfingers 7.12502
rthumb 17.2693 -46.2025
lclavicle -6.44062e-014 1.06549e-013
lhumerus 5.22488 -60.9252 52.2325
lradius 89.1178
lwrist 10.2496
lhand -23.9044 -17.9986
lfingers 7.12502
lthumb 2.56965 11.9657
rfemur -37.0785 -58.3061 14.1269
rtibia 91.6984
rfoot -31.4172 -9.50694
rtoes -37.3452
lfemur -79.0349 -1.90416 -8.83903
ltibia 74.6626
lfoot -10.2474 -14.4023
ltoes -8.7879
310
root -13.0633 13.1771 2.37656 -164.064 33.799 176.547
lowerback 21.4404 5.24929 -3.08348
upperback 3.63357 6.81021 -10.8061
thorax -6.84736 3.89309 -12.2715
lowerneck -1.82988 21.5797 23.0199
upperneck 15.2664 34.6063 -19.4173
head 12.7809 16.147 -4.30482
rclavicle -5.1684e-014 7.79236e-014
rhumerus 53.9441 -25.3328 -24.8981
rradius 126.369
rwrist -68.0749
rhand -8.94784 -16.8087
rfingers 7.12502
rthumb 16.9966 -46.0851
lclavicle -5.1684e-014 7.79236e-014
lhumerus 4.81884 -60.8979 52.6419
lradius 88.8771
lwrist 10.1993
lhand -23.5741 -17.8612
lfingers 7.12502
lthumb 2.88867 12.099
rfemur -37.2937 -58.4853 14.1323
rtibia 91.8548
rfoot -31.3252 -9.6394
rtoes -37.6341
lfemur -79.1472 -1.92845 -8.80568
ltibia 74.8163
lfoot -10.2687 -14.33
ltoes -8.70501
311
root -13.0753 13.1576 2.37269 -164.072 33.9265 176.454
lowerback 21.455 5.2306 -3.03281
upperback 3.60263 6.79265 -10.8765
thorax -6.87737 3.88366 -12.3882
lowerneck -1.9811 21.5479 23.1784
upperneck 15.5495 34.4912 -19.0923
head 12.8438 16.1043 -4.22828
rclavicle -7.87187e-014 8.98507e-014
rhumerus 53.802 -25.3365 -24.9911
rradius 126.364
rwrist -68.1278
rhand -8.83849 -16.7081
rfingers 7.12502
rthumb 17.1019 -45.9754
lclavicle -7.87187e-014 8.98507e-014
lhumerus 4.59555 -60.9973 52.9629
lradius 88.5417
lwrist 10.1564
lhand -23.5541 -17.8009
lfingers 7.12502
lthumb 2.90796 12.1591
rfemur -37.6375 -58.6824 14.058
rtibia 92.0961
rfoot -31.2079 -9.76598
rtoes -37.8228
lfemur -79.3305 -1.89603 -8.90462
ltibia 74.9959
lfoot -10.2971 -14.2606
ltoes -8.49559
312
root -13.0864 13.1469 2.36898 -164.114 34.1797 176.393
lowerback 21.4954 5.25129 -3.05443
upperback 3.58653 6.80901 -10.9138
thorax -6.9107 3.89112 -12.4339
lowerneck -1.986 21.469 23.4317
upperneck 15.5655 34.4041 -19.2662
head 12.9231 16.0679 -4.3262
rclavicle -4.05521e-014 1.94809e-013
rhumerus 53.7228 -25.244 -24.9995
rradius 126.354
rwrist -67.9468
rhand -8.78672 -16.7937
rfingers 7.12502
rthumb 17.1517 -46.0567
lclavicle -4.05521e-014 1.94809e-013
lhumerus 4.78657 -61.1934 52.6787
lradius 88.3076
lwrist 10.1675
lhand -23.8255 -17.6402
lfingers 7.12502
lthumb 2.64592 12.3231
rfemur -37.9375 -58.6452 14.0343
rtibia 92.3024
rfoot -31.1273 -9.94095
rtoes -38.1374
lfemur -79.377 -1.67993 -9.07275
ltibia 75.156
lfoot -10.4284 -14.2652
ltoes -8.36148
313
root -13.0999 13.1375 2.36537 -164.149 34.4157 176.348
lowerback 21.5014 5.21717 -3.0952
upperback 3.60607 6.75267 -10.9022
thorax -6.90842 3.86355 -12.3802
lowerneck -1.99052 21.409 23.7546
upperneck 15.5775 34.4189 -19.6435
head 13.0877 16.0637 -4.46285
rclavicle -9.78021e-014 1.44715e-013
rhumerus 53.8481 -25.1261 -25.034
rradius 126.388
rwrist -67.7118
rhand -8.82832 -16.9994
rfingers 7.12502
rthumb 17.1117 -46.2659
lclavicle -9.78021e-014 1.44715e-013
lhumerus 5.12931 -61.3101 52.0457
lradius 88.1476
lwrist 10.2703
lhand -23.7392 -17.4405
lfingers 7.12502
lthumb 2.72925 12.5218
rfemur -38.164 -58.6345 14.0224
rtibia 92.4746
rfoot -30.9515 -10.0344
rtoes -38.4223
lfemur -79.4154 -1.53529 -9.18346
ltibia 75.2767
lfoot -10.5464 -14.1607
ltoes -8.70026
314
root -13.1134 13.134 2.36303 -164.164 34.538 176.337
lowerback 21.4993 5.15879 -3.05424
upperback 3.62599 6.68239 -10.8828
thorax -6.89627 3.8273 -12.3597
lowerneck -1.95655 21.4396 23.7953
upperneck 15.6032 34.4641 -19.6283
head 13.1064 16.0861 -4.45019
rclavicle -6.04305e-014 1.4551e-013
rhumerus 53.8317 -25.0469 -24.9605
rradius 126.463
rwrist -67.642
rhand -9.0137 -17.0621
rfingers 7.12502
rthumb 16.9332 -46.3439
lclavicle -6.04305e-014 1.4551e-013
lhumerus 5.26235 -61.3127 51.7918
lradius 87.9409
lwrist 10.2036
lhand -23.1577 -17.2034
lfingers 7.12502
lthumb 3.29081 12.751
rfemur -38.2739 -58.7486 14.01
rtibia 92.5593
rfoot -30.8419 -10.0065
rtoes -38.3809
lfemur -79.4336 -1.5415 -9.19304
ltibia 75.3285
lfoot -10.5763 -14.0755
ltoes -9.05741
315
root -13.1228 13.1387 2.36604 -164.195 34.639 176.353
lowerback 21.5717 5.1506 -3.03176
upperback 3.62652 6.6637 -10.8418
thorax -6.94041 3.8124 -12.331
lowerneck -1.88075 21.4038 23.8492
upperneck 15.6093 34.4023 -19.6008
head 13.0851 16.0718 -4.47378
rclavicle 3.81667e-014 7.15625e-015
rhumerus 53.6325 -24.9834 -24.8084
rradius 126.548
rwrist -67.6919
rhand -9.21742 -17.0794
rfingers 7.12502
rthumb 16.7371 -46.3779
lclavicle 3.81667e-014 7.15625e-015
lhumerus 5.11582 -61.2507 52.1089
lradius 87.7145
lwrist 10.0652
lhand -22.7554 -17.1512
lfingers 7.12502
lthumb 3.67934 12.7968
rfemur -38.328 -58.7921 14.044
rtibia 92.5579
rfoot -30.9492 -10.055
rtoes -38.4621
lfemur -79.3553 -1.53769 -9.18071
ltibia 75.3131
lfoot -10.6468 -14.0326
ltoes -9.11782
316
root -13.1272 13.1356 2.37008 -164.305 34.8507 176.344
lowerback 21.6563 5.18982 -3.1756
upperback 3.65443 6.67701 -10.7846
thorax -6.97437 3.81915 -12.1921
lowerneck -1.92348 21.3721 23.7951
upperneck 15.6719 34.3322 -19.5413
head 13.0775 16.0397 -4.46684
rclavicle 1.1609e-013 -4.05521e-014
rhumerus 53.5655 -24.9426 -24.805
rradius 126.609
rwrist -67.829
rhand -9.12427 -17.1661
rfingers 7.12502
rthumb 16.8268 -46.457
lclavicle 1.1609e-013 -4.05521e-014
lhumerus 4.77188 -61.001 52.7613
lradius 87.5151
lwrist 10.0389
lhand -22.8241 -17.3486
lfingers 7.12502
lthumb 3.61301 12.6005
rfemur -38.1801 -58.7132 13.8806
rtibia 92.5292
rfoot -31.1829 -10.0231
rtoes -38.3043
lfemur -79.1916 -1.39111 -9.2395
ltibia 75.298
lfoot -10.7695 -13.8642
ltoes -9.15055
317
root -13.1341 13.1199 2.37085 -164.382 35.0435 176.273
lowerback 21.61 5.18507 -3.34392
upperback 3.69788 6.6419 -10.7461
thorax -6.93091 3.8075 -12.0252
lowerneck -1.92946 21.3677 23.8258
upperneck 15.6971 34.3643 -19.653
head 13.1303 16.0462 -4.49338
rclavicle 3.57812e-014 -5.24792e-014
rhumerus 53.7063 -24.9064 -24.8961
rradius 126.607
rwrist -67.9068
rhand -8.97951 -17.1311
rfingers 7.12502
rthumb 16.9662 -46.4101
lclavicle 3.57812e-014 -5.24792e-014
lhumerus 4.53888 -60.7341 53.1355
lradius 87.4
lwrist 10.1041
lhand -22.9979 -17.5961
lfingers 7.12502
lthumb 3.44511 12.3559
rfemur -38.0793 -58.7378 13.6251
rtibia 92.5601
rfoot -31.3372 -9.8056
rtoes -37.773
lfemur -79.1779 -1.25759 -9.3164
ltibia 75.3178
lfoot -10.747 -13.8119
ltoes -8.95863
318
root -13.1473 13.1162 2.36932 -164.27 35.1107 176.313
lowerback 21.433 5.09548 -3.23888
upperback 3.72391 6.5562 -10.7099
thorax -6.81824 3.76404 -11.9873
lowerneck -1.90694 21.3811 23.8582
upperneck 15.7215 34.4381 -19.7677
head 13.1883 16.072 -4.51163
rclavicle -8.74653e-015 -4.77083e-015
rhumerus 53.9048 -24.9094 -24.9692
rradius 126.507
rwrist -67.8125
rhand -8.84611 -16.9353
rfingers 7.12502
rthumb 17.0946 -46.2032
lclavicle -8.74653e-015 -4.77083e-015
lhumerus 4.31772 -60.6061 53.2277
lradius 87.4317
lwrist 10.0759
lhand -23.0157 -17.8961
lfingers 7.12502
lthumb 3.42791 12.0561
rfemur -38.3681 -58.6674 13.8272
rtibia 92.5948
rfoot -31.2905 -9.82865
rtoes -37.5608
lfemur -79.3032 -1.2589 -9.216
ltibia 75.3129
lfoot -10.7988 -13.7223
ltoes -9.19065
319
root -13.1566 13.1239 2.36728 -164.194 35.1657 176.388
lowerback 21.3273 5.01933 -3.06021
upperback 3.72627 6.49442 -10.6866
thorax -6.75583 3.72832 -12.0296
lowerneck -1.87225 21.3671 23.8128
upperneck 15.7478 34.4092 -19.7089
head 13.163 16.0651 -4.50262
rclavicle 3.81667e-014 -1.35174e-014
rhumerus 54.0062 -24.9269 -25.0173
rradius 126.352
rwrist -67.6499
rhand -8.78142 -16.6993
rfingers 7.12502
rthumb 17.1568 -45.9618
lclavicle 3.81667e-014 -1.35174e-014
lhumerus 3.8996 -60.5696 53.48
lradius 87.5076
lwrist 9.73543
lhand -22.9482 -17.9373
lfingers 7.12502
lthumb 3.49311 12.0138
rfemur -38.5565 -58.4436 14.0323
rtibia 92.5839
rfoot -31.231 -9.86434
rtoes -37.347
lfemur -79.2976 -1.23793 -9.14896
ltibia 75.2791
lfoot -10.8949 -13.4753
ltoes -9.79377
